<?xml version="1.0" encoding="UTF-8" standalone="no"?>
<!DOCTYPE svg PUBLIC "-//W3C//DTD SVG 1.1//EN"
 "http://www.w3.org/Graphics/SVG/1.1/DTD/svg11.dtd">
<!-- Generated by graphviz version 2.40.1 (20161225.0304)
 -->
<!-- Title: GFA Pages: 1 -->
<svg width="184pt" height="314pt"
 viewBox="0.00 0.00 183.95 313.65" xmlns="http://www.w3.org/2000/svg" xmlns:xlink="http://www.w3.org/1999/xlink">
<g id="graph0" class="graph" transform="scale(1 1) rotate(0) translate(4 309.6468)">
<title>GFA</title>
<polygon fill="#ffffff" stroke="transparent" points="-4,4 -4,-309.6468 179.949,-309.6468 179.949,4 -4,4"/>
<!-- 0 -->
<g id="node1" class="node">
<title>0</title>
<ellipse fill="none" stroke="#000000" cx="90.949" cy="-271.7056" rx="48.1667" ry="33.8824"/>
<text text-anchor="start" x="85.449" y="-276.7056" font-family="Times,serif" font-size="20.00" fill="#000000">4</text>
<text text-anchor="start" x="64.949" y="-264.7056" font-family="Times,serif" font-size="10.00" fill="#000000">L: 314.03Kb</text>
<text text-anchor="start" x="68.449" y="-254.7056" font-family="Times,serif" font-size="10.00" fill="#000000">C: 213.208</text>
</g>
<!-- 1 -->
<g id="node2" class="node">
<title>1</title>
<ellipse fill="none" stroke="#000000" cx="90.949" cy="-152.8234" rx="44.5955" ry="33.8824"/>
<text text-anchor="start" x="85.449" y="-157.8234" font-family="Times,serif" font-size="20.00" fill="#000000">5</text>
<text text-anchor="start" x="67.449" y="-145.8234" font-family="Times,serif" font-size="10.00" fill="#000000">L: 12.83Kb</text>
<text text-anchor="start" x="70.949" y="-135.8234" font-family="Times,serif" font-size="10.00" fill="#000000">C: 405.25</text>
</g>
<!-- 0&#45;&gt;1 -->
<g id="edge1" class="edge">
<title>0&#45;&gt;1</title>
<path fill="none" stroke="#000000" d="M47.6546,-256.7135C30.9076,-248.5492 13.5013,-236.5927 3.949,-219.7645 -8.368,-198.0658 14.6674,-181.053 40.1174,-169.6085"/>
<polygon fill="none" stroke="#000000" points="49.5419,-165.6457 38.967,-166.2955 40.3236,-169.5218 49.5419,-165.6457"/>
<text text-anchor="middle" x="21.949" y="-208.5645" font-family="Times,serif" font-size="14.00" fill="#000000"> &#160;164 &#160;</text>
<text text-anchor="middle" x="38.5419" y="-169.4457" font-family="Times,serif" font-size="14.00" fill="#000000"> &#160;+ &#160;</text>
<text text-anchor="middle" x="36.6546" y="-260.5135" font-family="Times,serif" font-size="14.00" fill="#000000"> &#160;+ &#160;</text>
</g>
<!-- 0&#45;&gt;1 -->
<g id="edge2" class="edge">
<title>0&#45;&gt;1</title>
<path fill="none" stroke="#000000" d="M69.161,-241.3693C63.5372,-230.1231 59.8356,-217.1011 62.949,-204.7645 63.9783,-200.6858 65.3978,-196.5792 67.0559,-192.5586"/>
<polygon fill="none" stroke="#000000" points="71.2862,-183.3867 63.9196,-191.0015 67.0979,-192.4674 71.2862,-183.3867"/>
<text text-anchor="middle" x="80.949" y="-208.5645" font-family="Times,serif" font-size="14.00" fill="#000000"> &#160;235 &#160;</text>
<text text-anchor="middle" x="82.2862" y="-187.1867" font-family="Times,serif" font-size="14.00" fill="#000000"> &#160;+ &#160;</text>
<text text-anchor="middle" x="59.661" y="-230.1693" font-family="Times,serif" font-size="14.00" fill="#000000"> &#160;&#45; &#160;</text>
</g>
<!-- 1&#45;&gt;0 -->
<g id="edge5" class="edge">
<title>1&#45;&gt;0</title>
<path fill="none" stroke="#000000" d="M97.5593,-186.4798C98.9513,-197.109 99.7799,-208.9112 98.949,-219.7645 98.7438,-222.4439 98.48,-225.1944 98.1737,-227.964"/>
<polygon fill="none" stroke="#000000" points="98.1612,-228.0635 94.6888,-227.6247 96.9076,-237.9846 98.1612,-228.0635"/>
<text text-anchor="middle" x="116.949" y="-208.5645" font-family="Times,serif" font-size="14.00" fill="#000000"> &#160;164 &#160;</text>
<text text-anchor="middle" x="87.4076" y="-226.7846" font-family="Times,serif" font-size="14.00" fill="#000000"> &#160;&#45; &#160;</text>
<text text-anchor="middle" x="107.0593" y="-190.2798" font-family="Times,serif" font-size="14.00" fill="#000000"> &#160;&#45; &#160;</text>
</g>
<!-- 1&#45;&gt;0 -->
<g id="edge6" class="edge">
<title>1&#45;&gt;0</title>
<path fill="none" stroke="#000000" d="M123.1164,-176.5089C135.3804,-188.5998 145.0982,-204.05 138.949,-219.7645 136.4539,-226.1409 132.7681,-232.2039 128.5288,-237.7877"/>
<polygon fill="none" stroke="#000000" points="121.9959,-245.6061 131.0938,-240.1765 128.4079,-237.9323 121.9959,-245.6061"/>
<text text-anchor="middle" x="157.949" y="-208.5645" font-family="Times,serif" font-size="14.00" fill="#000000"> &#160;235 &#160;</text>
<text text-anchor="middle" x="132.9959" y="-234.4061" font-family="Times,serif" font-size="14.00" fill="#000000"> &#160;+ &#160;</text>
<text text-anchor="middle" x="132.6164" y="-180.3089" font-family="Times,serif" font-size="14.00" fill="#000000"> &#160;&#45; &#160;</text>
</g>
<!-- 2 -->
<g id="node3" class="node">
<title>2</title>
<ellipse fill="none" stroke="#000000" cx="90.949" cy="-33.9411" rx="44.5955" ry="33.8824"/>
<text text-anchor="start" x="85.449" y="-38.9411" font-family="Times,serif" font-size="20.00" fill="#000000">6</text>
<text text-anchor="start" x="67.449" y="-26.9411" font-family="Times,serif" font-size="10.00" fill="#000000">L: 74.11Kb</text>
<text text-anchor="start" x="68.449" y="-16.9411" font-family="Times,serif" font-size="10.00" fill="#000000">C: 209.077</text>
</g>
<!-- 1&#45;&gt;2 -->
<g id="edge3" class="edge">
<title>1&#45;&gt;2</title>
<path fill="none" stroke="#000000" d="M49.5419,-140.0011C20.8584,-128.7016 -9.8807,-110.2458 3.949,-85.8823 12.2191,-71.3129 26.3761,-60.3953 40.8955,-52.4286"/>
<polygon fill="none" stroke="#000000" points="41.0154,-52.3678 42.599,-55.4891 49.9334,-47.8434 41.0154,-52.3678"/>
<text text-anchor="middle" x="21.949" y="-89.6823" font-family="Times,serif" font-size="14.00" fill="#000000"> &#160;197 &#160;</text>
<text text-anchor="middle" x="40.4334" y="-51.6434" font-family="Times,serif" font-size="14.00" fill="#000000"> &#160;&#45; &#160;</text>
<text text-anchor="middle" x="38.5419" y="-143.8011" font-family="Times,serif" font-size="14.00" fill="#000000"> &#160;+ &#160;</text>
</g>
<!-- 1&#45;&gt;2 -->
<g id="edge4" class="edge">
<title>1&#45;&gt;2</title>
<path fill="none" stroke="#000000" d="M71.2862,-122.26C67.842,-115.4725 64.7789,-108.1333 62.949,-100.8823 60.64,-91.7329 62.0794,-82.2065 65.2715,-73.3071"/>
<polygon fill="none" stroke="#000000" points="69.3286,-63.9439 62.1412,-71.728 65.3527,-73.1196 69.3286,-63.9439"/>
<text text-anchor="middle" x="80.949" y="-89.6823" font-family="Times,serif" font-size="14.00" fill="#000000"> &#160;191 &#160;</text>
<text text-anchor="middle" x="80.3286" y="-67.7439" font-family="Times,serif" font-size="14.00" fill="#000000"> &#160;+ &#160;</text>
<text text-anchor="middle" x="82.2862" y="-111.06" font-family="Times,serif" font-size="14.00" fill="#000000"> &#160;+ &#160;</text>
</g>
<!-- 2&#45;&gt;1 -->
<g id="edge7" class="edge">
<title>2&#45;&gt;1</title>
<path fill="none" stroke="#000000" d="M97.5593,-67.5975C98.9513,-78.2267 99.7799,-90.0289 98.949,-100.8823 98.7438,-103.5617 98.48,-106.3121 98.1737,-109.0817"/>
<polygon fill="none" stroke="#000000" points="98.1612,-109.1813 94.6888,-108.7425 96.9076,-119.1024 98.1612,-109.1813"/>
<text text-anchor="middle" x="116.949" y="-89.6823" font-family="Times,serif" font-size="14.00" fill="#000000"> &#160;197 &#160;</text>
<text text-anchor="middle" x="106.4076" y="-107.9024" font-family="Times,serif" font-size="14.00" fill="#000000"> &#160;&#45; &#160;</text>
<text text-anchor="middle" x="108.5593" y="-71.3975" font-family="Times,serif" font-size="14.00" fill="#000000"> &#160;+ &#160;</text>
</g>
<!-- 2&#45;&gt;1 -->
<g id="edge8" class="edge">
<title>2&#45;&gt;1</title>
<path fill="none" stroke="#000000" d="M123.1164,-57.6267C135.3804,-69.7175 145.0982,-85.1678 138.949,-100.8823 136.3035,-107.6427 132.3197,-114.051 127.7568,-119.9093"/>
<polygon fill="none" stroke="#000000" points="127.7381,-119.9312 125.0756,-117.6593 121.247,-127.5382 127.7381,-119.9312"/>
<text text-anchor="middle" x="157.949" y="-89.6823" font-family="Times,serif" font-size="14.00" fill="#000000"> &#160;191 &#160;</text>
<text text-anchor="middle" x="130.747" y="-116.3382" font-family="Times,serif" font-size="14.00" fill="#000000"> &#160;&#45; &#160;</text>
<text text-anchor="middle" x="132.6164" y="-61.4267" font-family="Times,serif" font-size="14.00" fill="#000000"> &#160;&#45; &#160;</text>
</g>
</g>
</svg>
