<?xml version="1.0" encoding="UTF-8" standalone="no"?>
<!DOCTYPE svg PUBLIC "-//W3C//DTD SVG 1.1//EN"
 "http://www.w3.org/Graphics/SVG/1.1/DTD/svg11.dtd">
<!-- Generated by graphviz version 2.40.1 (20161225.0304)
 -->
<!-- Title: GFA Pages: 1 -->
<svg width="562pt" height="1265pt"
 viewBox="0.00 0.00 561.55 1264.70" xmlns="http://www.w3.org/2000/svg" xmlns:xlink="http://www.w3.org/1999/xlink">
<g id="graph0" class="graph" transform="scale(1 1) rotate(0) translate(4 1260.7048)">
<title>GFA</title>
<polygon fill="#ffffff" stroke="transparent" points="-4,4 -4,-1260.7048 557.5477,-1260.7048 557.5477,4 -4,4"/>
<!-- 0 -->
<g id="node1" class="node">
<title>0</title>
<ellipse fill="none" stroke="#000000" cx="277" cy="-1222.7636" rx="41.0244" ry="33.8824"/>
<text text-anchor="start" x="271.5" y="-1227.7636" font-family="Times,serif" font-size="20.00" fill="#000000">5</text>
<text text-anchor="start" x="256" y="-1215.7636" font-family="Times,serif" font-size="10.00" fill="#000000">L: 2.60Kb</text>
<text text-anchor="start" x="262" y="-1205.7636" font-family="Times,serif" font-size="10.00" fill="#000000">C: 66.5</text>
</g>
<!-- 3 -->
<g id="node4" class="node">
<title>3</title>
<ellipse fill="none" stroke="#000000" cx="277" cy="-1103.8814" rx="41.0244" ry="33.8824"/>
<text text-anchor="start" x="266.5" y="-1108.8814" font-family="Times,serif" font-size="20.00" fill="#000000">11</text>
<text text-anchor="start" x="256" y="-1096.8814" font-family="Times,serif" font-size="10.00" fill="#000000">L: 6.01Kb</text>
<text text-anchor="start" x="259.5" y="-1086.8814" font-family="Times,serif" font-size="10.00" fill="#000000">C: 489.6</text>
</g>
<!-- 0&#45;&gt;3 -->
<g id="edge1" class="edge">
<title>0&#45;&gt;3</title>
<path fill="none" stroke="#000000" d="M259.4302,-1192.0034C256.356,-1185.2292 253.6249,-1177.9451 252,-1170.8225 249.9331,-1161.7626 251.2162,-1152.2733 254.0658,-1143.3817"/>
<polygon fill="none" stroke="#000000" points="257.6883,-1134.0164 250.8164,-1142.0804 254.0807,-1143.343 257.6883,-1134.0164"/>
<text text-anchor="middle" x="266.5" y="-1159.6225" font-family="Times,serif" font-size="14.00" fill="#000000"> &#160;80 &#160;</text>
<text text-anchor="middle" x="246.6883" y="-1137.8164" font-family="Times,serif" font-size="14.00" fill="#000000"> &#160;+ &#160;</text>
<text text-anchor="middle" x="248.4302" y="-1180.8034" font-family="Times,serif" font-size="14.00" fill="#000000"> &#160;+ &#160;</text>
</g>
<!-- 1 -->
<g id="node2" class="node">
<title>1</title>
<ellipse fill="none" stroke="#000000" cx="144" cy="-984.9991" rx="41.0244" ry="33.8824"/>
<text text-anchor="start" x="138.5" y="-989.9991" font-family="Times,serif" font-size="20.00" fill="#000000">9</text>
<text text-anchor="start" x="123" y="-977.9991" font-family="Times,serif" font-size="10.00" fill="#000000">L: 2.50Kb</text>
<text text-anchor="start" x="133" y="-967.9991" font-family="Times,serif" font-size="10.00" fill="#000000">C: 84</text>
</g>
<!-- 1&#45;&gt;3 -->
<g id="edge2" class="edge">
<title>1&#45;&gt;3</title>
<path fill="none" stroke="#000000" d="M170.491,-1011.2182C183.4052,-1023.7698 199.2907,-1038.8751 214,-1051.9403 222.1119,-1059.1455 231.0048,-1066.6852 239.4864,-1073.7154"/>
<polygon fill="none" stroke="#000000" points="247.4535,-1080.272 241.9561,-1071.215 239.732,-1073.9175 247.4535,-1080.272"/>
<text text-anchor="middle" x="228.5" y="-1040.7403" font-family="Times,serif" font-size="14.00" fill="#000000"> &#160;97 &#160;</text>
<text text-anchor="middle" x="236.4535" y="-1069.072" font-family="Times,serif" font-size="14.00" fill="#000000"> &#160;+ &#160;</text>
<text text-anchor="middle" x="181.491" y="-1015.0182" font-family="Times,serif" font-size="14.00" fill="#000000"> &#160;+ &#160;</text>
</g>
<!-- 2 -->
<g id="node3" class="node">
<title>2</title>
<ellipse fill="none" stroke="#000000" cx="70" cy="-509.4701" rx="41.0244" ry="33.8824"/>
<text text-anchor="start" x="59.5" y="-514.4701" font-family="Times,serif" font-size="20.00" fill="#000000">10</text>
<text text-anchor="start" x="49" y="-502.4701" font-family="Times,serif" font-size="10.00" fill="#000000">L: 1.64Kb</text>
<text text-anchor="start" x="56.5" y="-492.4701" font-family="Times,serif" font-size="10.00" fill="#000000">C: 209</text>
</g>
<!-- 4 -->
<g id="node5" class="node">
<title>4</title>
<ellipse fill="none" stroke="#000000" cx="88" cy="-390.5879" rx="44.5955" ry="33.8824"/>
<text text-anchor="start" x="77.5" y="-395.5879" font-family="Times,serif" font-size="20.00" fill="#000000">12</text>
<text text-anchor="start" x="64.5" y="-383.5879" font-family="Times,serif" font-size="10.00" fill="#000000">L: 23.14Kb</text>
<text text-anchor="start" x="65.5" y="-373.5879" font-family="Times,serif" font-size="10.00" fill="#000000">C: 126.368</text>
</g>
<!-- 2&#45;&gt;4 -->
<g id="edge3" class="edge">
<title>2&#45;&gt;4</title>
<path fill="none" stroke="#000000" d="M84.3741,-477.5875C86.7084,-471.0761 88.7639,-464.1792 90,-457.529 91.3585,-450.2202 91.9137,-442.3866 91.982,-434.7463"/>
<polygon fill="none" stroke="#000000" points="91.9781,-434.5132 95.4775,-434.4521 91.8032,-424.5148 91.9781,-434.5132"/>
<text text-anchor="middle" x="106.5" y="-446.329" font-family="Times,serif" font-size="14.00" fill="#000000"> &#160;86 &#160;</text>
<text text-anchor="middle" x="82.3032" y="-428.3148" font-family="Times,serif" font-size="14.00" fill="#000000"> &#160;&#45; &#160;</text>
<text text-anchor="middle" x="73.3741" y="-466.3875" font-family="Times,serif" font-size="14.00" fill="#000000"> &#160;+ &#160;</text>
</g>
<!-- 11 -->
<g id="node12" class="node">
<title>11</title>
<ellipse fill="none" stroke="#000000" cx="108" cy="-628.3524" rx="44.5955" ry="33.8824"/>
<text text-anchor="start" x="97.5" y="-633.3524" font-family="Times,serif" font-size="20.00" fill="#000000">20</text>
<text text-anchor="start" x="84.5" y="-621.3524" font-family="Times,serif" font-size="10.00" fill="#000000">L: 48.08Kb</text>
<text text-anchor="start" x="85.5" y="-611.3524" font-family="Times,serif" font-size="10.00" fill="#000000">C: 930.025</text>
</g>
<!-- 2&#45;&gt;11 -->
<g id="edge4" class="edge">
<title>2&#45;&gt;11</title>
<path fill="none" stroke="#000000" d="M43.1416,-535.4481C33.6694,-547.812 26.9397,-562.8297 34,-576.4113 40.0553,-588.0597 50.0531,-597.6411 60.7708,-605.2627"/>
<polygon fill="none" stroke="#000000" points="61.0952,-605.4753 59.1766,-608.4026 69.4589,-610.957 61.0952,-605.4753"/>
<text text-anchor="middle" x="52" y="-565.2113" font-family="Times,serif" font-size="14.00" fill="#000000"> &#160;129 &#160;</text>
<text text-anchor="middle" x="59.9589" y="-614.757" font-family="Times,serif" font-size="14.00" fill="#000000"> &#160;&#45; &#160;</text>
<text text-anchor="middle" x="32.1416" y="-539.2481" font-family="Times,serif" font-size="14.00" fill="#000000"> &#160;+ &#160;</text>
</g>
<!-- 3&#45;&gt;0 -->
<g id="edge7" class="edge">
<title>3&#45;&gt;0</title>
<path fill="none" stroke="#000000" d="M280.3282,-1137.9223C281.0107,-1148.4636 281.4115,-1160.1194 281,-1170.8225 280.9027,-1173.353 280.7788,-1175.9514 280.6354,-1178.5724"/>
<polygon fill="none" stroke="#000000" points="280.6263,-1178.7185 277.1332,-1178.4992 279.9997,-1188.6989 280.6263,-1178.7185"/>
<text text-anchor="middle" x="296.5" y="-1159.6225" font-family="Times,serif" font-size="14.00" fill="#000000"> &#160;80 &#160;</text>
<text text-anchor="middle" x="270.4997" y="-1177.4989" font-family="Times,serif" font-size="14.00" fill="#000000"> &#160;&#45; &#160;</text>
<text text-anchor="middle" x="270.8282" y="-1141.7223" font-family="Times,serif" font-size="14.00" fill="#000000"> &#160;&#45; &#160;</text>
</g>
<!-- 3&#45;&gt;1 -->
<g id="edge8" class="edge">
<title>3&#45;&gt;1</title>
<path fill="none" stroke="#000000" d="M237.4827,-1094.0081C213.7794,-1086.2079 184.7014,-1073.0352 166,-1051.9403 160.0448,-1045.2228 155.696,-1036.856 152.522,-1028.3374"/>
<polygon fill="none" stroke="#000000" points="152.4935,-1028.2492 155.8235,-1027.1716 149.4146,-1018.735 152.4935,-1028.2492"/>
<text text-anchor="middle" x="180.5" y="-1040.7403" font-family="Times,serif" font-size="14.00" fill="#000000"> &#160;97 &#160;</text>
<text text-anchor="middle" x="139.9146" y="-1022.535" font-family="Times,serif" font-size="14.00" fill="#000000"> &#160;&#45; &#160;</text>
<text text-anchor="middle" x="227.9827" y="-1097.8081" font-family="Times,serif" font-size="14.00" fill="#000000"> &#160;&#45; &#160;</text>
</g>
<!-- 5 -->
<g id="node6" class="node">
<title>5</title>
<ellipse fill="none" stroke="#000000" cx="248" cy="-984.9991" rx="44.5955" ry="33.8824"/>
<text text-anchor="start" x="237.5" y="-989.9991" font-family="Times,serif" font-size="20.00" fill="#000000">13</text>
<text text-anchor="start" x="224.5" y="-977.9991" font-family="Times,serif" font-size="10.00" fill="#000000">L: 17.12Kb</text>
<text text-anchor="start" x="225.5" y="-967.9991" font-family="Times,serif" font-size="10.00" fill="#000000">C: 2236.38</text>
</g>
<!-- 3&#45;&gt;5 -->
<g id="edge5" class="edge">
<title>3&#45;&gt;5</title>
<path fill="none" stroke="#000000" d="M257.7045,-1073.8533C254.1404,-1066.9126 250.9357,-1059.3757 249,-1051.9403 247.1278,-1044.7485 246.1284,-1036.9734 245.6826,-1029.3551"/>
<polygon fill="none" stroke="#000000" points="245.3879,-1019.133 242.1776,-1029.2298 245.6762,-1029.1289 245.3879,-1019.133"/>
<text text-anchor="middle" x="267" y="-1040.7403" font-family="Times,serif" font-size="14.00" fill="#000000"> &#160;675 &#160;</text>
<text text-anchor="middle" x="234.3879" y="-1022.933" font-family="Times,serif" font-size="14.00" fill="#000000"> &#160;+ &#160;</text>
<text text-anchor="middle" x="268.7045" y="-1062.6533" font-family="Times,serif" font-size="14.00" fill="#000000"> &#160;+ &#160;</text>
</g>
<!-- 7 -->
<g id="node8" class="node">
<title>7</title>
<ellipse fill="none" stroke="#000000" cx="428" cy="-984.9991" rx="44.5955" ry="33.8824"/>
<text text-anchor="start" x="417.5" y="-989.9991" font-family="Times,serif" font-size="20.00" fill="#000000">16</text>
<text text-anchor="start" x="404.5" y="-977.9991" font-family="Times,serif" font-size="10.00" fill="#000000">L: 28.41Kb</text>
<text text-anchor="start" x="405.5" y="-967.9991" font-family="Times,serif" font-size="10.00" fill="#000000">C: 120.786</text>
</g>
<!-- 3&#45;&gt;7 -->
<g id="edge6" class="edge">
<title>3&#45;&gt;7</title>
<path fill="none" stroke="#000000" d="M306.8327,-1080.3941C330.3321,-1061.893 363.2861,-1035.9484 388.896,-1015.7857"/>
<polygon fill="none" stroke="#000000" points="389.0744,-1015.6453 391.2394,-1018.3953 396.9315,-1009.4593 389.0744,-1015.6453"/>
<text text-anchor="middle" x="376.5" y="-1040.7403" font-family="Times,serif" font-size="14.00" fill="#000000"> &#160;81 &#160;</text>
<text text-anchor="middle" x="387.4315" y="-1013.2593" font-family="Times,serif" font-size="14.00" fill="#000000"> &#160;&#45; &#160;</text>
<text text-anchor="middle" x="317.8327" y="-1069.1941" font-family="Times,serif" font-size="14.00" fill="#000000"> &#160;+ &#160;</text>
</g>
<!-- 4&#45;&gt;2 -->
<g id="edge9" class="edge">
<title>4&#45;&gt;2</title>
<path fill="none" stroke="#000000" d="M66.5629,-420.38C62.6212,-427.3342 59.0935,-434.9362 57,-442.529 54.8537,-450.313 54.7738,-458.7008 55.8115,-466.8182"/>
<polygon fill="none" stroke="#000000" points="55.8543,-467.0527 52.4113,-467.682 57.6523,-476.8897 55.8543,-467.0527"/>
<text text-anchor="middle" x="71.5" y="-446.329" font-family="Times,serif" font-size="14.00" fill="#000000"> &#160;86 &#160;</text>
<text text-anchor="middle" x="48.1523" y="-465.6897" font-family="Times,serif" font-size="14.00" fill="#000000"> &#160;&#45; &#160;</text>
<text text-anchor="middle" x="55.5629" y="-424.18" font-family="Times,serif" font-size="14.00" fill="#000000"> &#160;+ &#160;</text>
</g>
<!-- 5&#45;&gt;3 -->
<g id="edge12" class="edge">
<title>5&#45;&gt;3</title>
<path fill="none" stroke="#000000" d="M272.7838,-1013.2063C277.7928,-1020.4737 282.3361,-1028.6093 285,-1036.9403 287.4062,-1044.4654 287.9873,-1052.6761 287.5385,-1060.6878"/>
<polygon fill="none" stroke="#000000" points="287.5353,-1060.7187 284.0549,-1060.349 286.4791,-1070.6628 287.5353,-1060.7187"/>
<text text-anchor="middle" x="306" y="-1040.7403" font-family="Times,serif" font-size="14.00" fill="#000000"> &#160;675 &#160;</text>
<text text-anchor="middle" x="295.9791" y="-1059.4628" font-family="Times,serif" font-size="14.00" fill="#000000"> &#160;&#45; &#160;</text>
<text text-anchor="middle" x="263.2838" y="-1017.0063" font-family="Times,serif" font-size="14.00" fill="#000000"> &#160;&#45; &#160;</text>
</g>
<!-- 12 -->
<g id="node13" class="node">
<title>12</title>
<ellipse fill="none" stroke="#000000" cx="210" cy="-390.5879" rx="44.5955" ry="33.8824"/>
<text text-anchor="start" x="199.5" y="-395.5879" font-family="Times,serif" font-size="20.00" fill="#000000">21</text>
<text text-anchor="start" x="186.5" y="-383.5879" font-family="Times,serif" font-size="10.00" fill="#000000">L: 14.42Kb</text>
<text text-anchor="start" x="187.5" y="-373.5879" font-family="Times,serif" font-size="10.00" fill="#000000">C: 68.6154</text>
</g>
<!-- 5&#45;&gt;12 -->
<g id="edge10" class="edge">
<title>5&#45;&gt;12</title>
<path fill="none" stroke="#000000" d="M247.5614,-950.9223C247.2927,-927.1549 247,-894.7033 247,-866.1169 247,-866.1169 247,-866.1169 247,-509.4701 247,-482.9207 238.4829,-454.4815 229.6215,-432.0774"/>
<polygon fill="none" stroke="#000000" points="229.5059,-431.7972 232.7413,-430.4621 225.6913,-422.5533 229.5059,-431.7972"/>
<text text-anchor="middle" x="261.5" y="-684.0935" font-family="Times,serif" font-size="14.00" fill="#000000"> &#160;84 &#160;</text>
<text text-anchor="middle" x="216.1913" y="-426.3533" font-family="Times,serif" font-size="14.00" fill="#000000"> &#160;&#45; &#160;</text>
<text text-anchor="middle" x="236.5614" y="-939.7223" font-family="Times,serif" font-size="14.00" fill="#000000"> &#160;+ &#160;</text>
</g>
<!-- 15 -->
<g id="node16" class="node">
<title>15</title>
<ellipse fill="none" stroke="#000000" cx="145" cy="-866.1169" rx="44.5955" ry="33.8824"/>
<text text-anchor="start" x="134.5" y="-871.1169" font-family="Times,serif" font-size="20.00" fill="#000000">24</text>
<text text-anchor="start" x="121.5" y="-859.1169" font-family="Times,serif" font-size="10.00" fill="#000000">L: 14.42Kb</text>
<text text-anchor="start" x="122.5" y="-849.1169" font-family="Times,serif" font-size="10.00" fill="#000000">C: 3317.15</text>
</g>
<!-- 5&#45;&gt;15 -->
<g id="edge11" class="edge">
<title>5&#45;&gt;15</title>
<path fill="none" stroke="#000000" d="M214.8883,-961.9609C208.1759,-957.9364 201.0181,-954.0784 194,-951.058 164.4934,-938.3591 143.6839,-958.4439 124,-933.058 117.8426,-925.1169 117.8347,-915.3419 120.6524,-905.7398"/>
<polygon fill="none" stroke="#000000" points="120.7041,-905.605 123.9715,-906.8596 124.2888,-896.2695 120.7041,-905.605"/>
<text text-anchor="middle" x="145.5" y="-921.858" font-family="Times,serif" font-size="14.00" fill="#000000"> &#160;3816 &#160;</text>
<text text-anchor="middle" x="114.7888" y="-900.0695" font-family="Times,serif" font-size="14.00" fill="#000000"> &#160;&#45; &#160;</text>
<text text-anchor="middle" x="203.8883" y="-950.7609" font-family="Times,serif" font-size="14.00" fill="#000000"> &#160;+ &#160;</text>
</g>
<!-- 6 -->
<g id="node7" class="node">
<title>6</title>
<ellipse fill="none" stroke="#000000" cx="509" cy="-747.2346" rx="44.5955" ry="33.8824"/>
<text text-anchor="start" x="498.5" y="-752.2346" font-family="Times,serif" font-size="20.00" fill="#000000">15</text>
<text text-anchor="start" x="485.5" y="-740.2346" font-family="Times,serif" font-size="10.00" fill="#000000">L: 13.33Kb</text>
<text text-anchor="start" x="486.5" y="-730.2346" font-family="Times,serif" font-size="10.00" fill="#000000">C: 89.5833</text>
</g>
<!-- 8 -->
<g id="node9" class="node">
<title>8</title>
<ellipse fill="none" stroke="#000000" cx="446" cy="-628.3524" rx="44.5955" ry="33.8824"/>
<text text-anchor="start" x="435.5" y="-633.3524" font-family="Times,serif" font-size="20.00" fill="#000000">17</text>
<text text-anchor="start" x="422.5" y="-621.3524" font-family="Times,serif" font-size="10.00" fill="#000000">L: 49.07Kb</text>
<text text-anchor="start" x="423.5" y="-611.3524" font-family="Times,serif" font-size="10.00" fill="#000000">C: 78.0526</text>
</g>
<!-- 6&#45;&gt;8 -->
<g id="edge13" class="edge">
<title>6&#45;&gt;8</title>
<path fill="none" stroke="#000000" d="M481.7226,-720.3867C475.1628,-712.7792 468.7016,-704.1444 464,-695.2935 460.1468,-688.0398 457.0688,-679.8959 454.6265,-671.852"/>
<polygon fill="none" stroke="#000000" points="451.9533,-662.1563 451.2372,-672.7269 454.6113,-671.7966 451.9533,-662.1563"/>
<text text-anchor="middle" x="478.5" y="-684.0935" font-family="Times,serif" font-size="14.00" fill="#000000"> &#160;45 &#160;</text>
<text text-anchor="middle" x="462.9533" y="-665.9563" font-family="Times,serif" font-size="14.00" fill="#000000"> &#160;+ &#160;</text>
<text text-anchor="middle" x="472.2226" y="-709.1867" font-family="Times,serif" font-size="14.00" fill="#000000"> &#160;&#45; &#160;</text>
</g>
<!-- 9 -->
<g id="node10" class="node">
<title>9</title>
<ellipse fill="none" stroke="#000000" cx="509" cy="-866.1169" rx="44.5955" ry="33.8824"/>
<text text-anchor="start" x="498.5" y="-871.1169" font-family="Times,serif" font-size="20.00" fill="#000000">18</text>
<text text-anchor="start" x="485.5" y="-859.1169" font-family="Times,serif" font-size="10.00" fill="#000000">L: 23.71Kb</text>
<text text-anchor="start" x="486.5" y="-849.1169" font-family="Times,serif" font-size="10.00" fill="#000000">C: 138.474</text>
</g>
<!-- 6&#45;&gt;9 -->
<g id="edge14" class="edge">
<title>6&#45;&gt;9</title>
<path fill="none" stroke="#000000" d="M518.6132,-780.5363C520.022,-786.6849 521.2496,-793.0867 522,-799.1758 522.9465,-806.8555 522.5622,-814.9772 521.4651,-822.8146"/>
<polygon fill="none" stroke="#000000" points="519.6642,-832.8929 524.8688,-823.6646 521.4234,-823.0489 519.6642,-832.8929"/>
<text text-anchor="middle" x="536.5" y="-802.9758" font-family="Times,serif" font-size="14.00" fill="#000000"> &#160;44 &#160;</text>
<text text-anchor="middle" x="508.6642" y="-821.6929" font-family="Times,serif" font-size="14.00" fill="#000000"> &#160;+ &#160;</text>
<text text-anchor="middle" x="509.1132" y="-784.3363" font-family="Times,serif" font-size="14.00" fill="#000000"> &#160;&#45; &#160;</text>
</g>
<!-- 7&#45;&gt;3 -->
<g id="edge15" class="edge">
<title>7&#45;&gt;3</title>
<path fill="none" stroke="#000000" d="M417.0567,-1018.2599C411.864,-1030.0708 404.6393,-1042.7101 395,-1051.9403 375.9034,-1070.2265 349.3063,-1082.6962 326.1965,-1090.8238"/>
<polygon fill="none" stroke="#000000" points="326.024,-1090.8813 324.9165,-1087.5611 316.5378,-1094.0455 326.024,-1090.8813"/>
<text text-anchor="middle" x="421.5" y="-1040.7403" font-family="Times,serif" font-size="14.00" fill="#000000"> &#160;81 &#160;</text>
<text text-anchor="middle" x="326.0378" y="-1097.8455" font-family="Times,serif" font-size="14.00" fill="#000000"> &#160;&#45; &#160;</text>
<text text-anchor="middle" x="428.0567" y="-1022.0599" font-family="Times,serif" font-size="14.00" fill="#000000"> &#160;+ &#160;</text>
</g>
<!-- 7&#45;&gt;8 -->
<g id="edge16" class="edge">
<title>7&#45;&gt;8</title>
<path fill="none" stroke="#000000" d="M411.3144,-953.2103C394.0296,-916.5544 370.626,-854.2604 379,-799.1758 387.3167,-744.4679 393.8029,-730.9829 416,-680.2935 417.7871,-676.2126 419.8146,-672.045 421.9525,-667.9338"/>
<polygon fill="none" stroke="#000000" points="426.758,-659.079 418.9119,-666.1986 421.9881,-667.8681 426.758,-659.079"/>
<text text-anchor="middle" x="393.5" y="-802.9758" font-family="Times,serif" font-size="14.00" fill="#000000"> &#160;54 &#160;</text>
<text text-anchor="middle" x="415.758" y="-662.879" font-family="Times,serif" font-size="14.00" fill="#000000"> &#160;+ &#160;</text>
<text text-anchor="middle" x="401.8144" y="-942.0103" font-family="Times,serif" font-size="14.00" fill="#000000"> &#160;&#45; &#160;</text>
</g>
<!-- 7&#45;&gt;9 -->
<g id="edge17" class="edge">
<title>7&#45;&gt;9</title>
<path fill="none" stroke="#000000" d="M443.4672,-952.8233C449.3775,-941.5123 456.5092,-928.9215 464,-918.058 467.8224,-912.5145 472.1466,-906.8908 476.5655,-901.4916"/>
<polygon fill="none" stroke="#000000" points="483.06,-893.7774 473.9421,-899.1732 476.6196,-901.4274 483.06,-893.7774"/>
<text text-anchor="middle" x="478.5" y="-921.858" font-family="Times,serif" font-size="14.00" fill="#000000"> &#160;64 &#160;</text>
<text text-anchor="middle" x="472.06" y="-897.5774" font-family="Times,serif" font-size="14.00" fill="#000000"> &#160;+ &#160;</text>
<text text-anchor="middle" x="433.9672" y="-941.6233" font-family="Times,serif" font-size="14.00" fill="#000000"> &#160;&#45; &#160;</text>
</g>
<!-- 8&#45;&gt;6 -->
<g id="edge18" class="edge">
<title>8&#45;&gt;6</title>
<path fill="none" stroke="#000000" d="M474.4448,-654.6768C481.3796,-662.3505 488.1802,-671.1488 493,-680.2935 496.7607,-687.4288 499.6505,-695.4552 501.8674,-703.4068"/>
<polygon fill="none" stroke="#000000" points="504.3303,-713.3662 505.3272,-702.8183 501.9296,-703.6586 504.3303,-713.3662"/>
<text text-anchor="middle" x="512.5" y="-684.0935" font-family="Times,serif" font-size="14.00" fill="#000000"> &#160;45 &#160;</text>
<text text-anchor="middle" x="493.3303" y="-702.1662" font-family="Times,serif" font-size="14.00" fill="#000000"> &#160;+ &#160;</text>
<text text-anchor="middle" x="483.9448" y="-658.4768" font-family="Times,serif" font-size="14.00" fill="#000000"> &#160;&#45; &#160;</text>
</g>
<!-- 8&#45;&gt;7 -->
<g id="edge19" class="edge">
<title>8&#45;&gt;7</title>
<path fill="none" stroke="#000000" d="M444.2793,-662.4456C441.0041,-727.3389 433.8768,-868.5576 430.2368,-940.68"/>
<polygon fill="none" stroke="#000000" points="429.7259,-950.8023 433.7256,-940.9915 430.2301,-940.8151 429.7259,-950.8023"/>
<text text-anchor="middle" x="452.5" y="-802.9758" font-family="Times,serif" font-size="14.00" fill="#000000"> &#160;54 &#160;</text>
<text text-anchor="middle" x="418.7259" y="-939.6023" font-family="Times,serif" font-size="14.00" fill="#000000"> &#160;+ &#160;</text>
<text text-anchor="middle" x="434.7793" y="-666.2456" font-family="Times,serif" font-size="14.00" fill="#000000"> &#160;&#45; &#160;</text>
</g>
<!-- 9&#45;&gt;6 -->
<g id="edge20" class="edge">
<title>9&#45;&gt;6</title>
<path fill="none" stroke="#000000" d="M492.95,-834.1114C489.2006,-823.1553 486.8499,-810.7431 489,-799.1758 489.6283,-795.7958 490.4682,-792.352 491.4488,-788.9275"/>
<polygon fill="none" stroke="#000000" points="494.526,-779.3965 488.1228,-787.8374 491.4535,-788.9128 494.526,-779.3965"/>
<text text-anchor="middle" x="503.5" y="-802.9758" font-family="Times,serif" font-size="14.00" fill="#000000"> &#160;44 &#160;</text>
<text text-anchor="middle" x="483.526" y="-783.1965" font-family="Times,serif" font-size="14.00" fill="#000000"> &#160;+ &#160;</text>
<text text-anchor="middle" x="483.45" y="-822.9114" font-family="Times,serif" font-size="14.00" fill="#000000"> &#160;&#45; &#160;</text>
</g>
<!-- 9&#45;&gt;7 -->
<g id="edge21" class="edge">
<title>9&#45;&gt;7</title>
<path fill="none" stroke="#000000" d="M505.3393,-900.1845C503.0133,-911.2918 499.2118,-923.2725 493,-933.058 487.2507,-942.115 479.3668,-950.2884 471.0707,-957.3287"/>
<polygon fill="none" stroke="#000000" points="463.0467,-963.7232 473.0484,-960.2281 470.8671,-957.4909 463.0467,-963.7232"/>
<text text-anchor="middle" x="513.5" y="-921.858" font-family="Times,serif" font-size="14.00" fill="#000000"> &#160;64 &#160;</text>
<text text-anchor="middle" x="474.0467" y="-952.5232" font-family="Times,serif" font-size="14.00" fill="#000000"> &#160;+ &#160;</text>
<text text-anchor="middle" x="495.8393" y="-903.9845" font-family="Times,serif" font-size="14.00" fill="#000000"> &#160;&#45; &#160;</text>
</g>
<!-- 10 -->
<g id="node11" class="node">
<title>10</title>
<ellipse fill="none" stroke="#000000" cx="194" cy="-152.8234" rx="44.5955" ry="33.8824"/>
<text text-anchor="start" x="183.5" y="-157.8234" font-family="Times,serif" font-size="20.00" fill="#000000">19</text>
<text text-anchor="start" x="170.5" y="-145.8234" font-family="Times,serif" font-size="10.00" fill="#000000">L: 21.88Kb</text>
<text text-anchor="start" x="176.5" y="-135.8234" font-family="Times,serif" font-size="10.00" fill="#000000">C: 754.1</text>
</g>
<!-- 13 -->
<g id="node14" class="node">
<title>13</title>
<ellipse fill="none" stroke="#000000" cx="194" cy="-271.7056" rx="44.5955" ry="33.8824"/>
<text text-anchor="start" x="183.5" y="-276.7056" font-family="Times,serif" font-size="20.00" fill="#000000">22</text>
<text text-anchor="start" x="170.5" y="-264.7056" font-family="Times,serif" font-size="10.00" fill="#000000">L: 13.25Kb</text>
<text text-anchor="start" x="171.5" y="-254.7056" font-family="Times,serif" font-size="10.00" fill="#000000">C: 14.8462</text>
</g>
<!-- 10&#45;&gt;13 -->
<g id="edge22" class="edge">
<title>10&#45;&gt;13</title>
<path fill="none" stroke="#000000" d="M197.3282,-186.8643C198.0107,-197.4056 198.4115,-209.0614 198,-219.7645 197.9027,-222.295 197.7788,-224.8934 197.6354,-227.5144"/>
<polygon fill="none" stroke="#000000" points="197.6263,-227.6605 194.1332,-227.4412 196.9997,-237.6409 197.6263,-227.6605"/>
<text text-anchor="middle" x="213.5" y="-208.5645" font-family="Times,serif" font-size="14.00" fill="#000000"> &#160;19 &#160;</text>
<text text-anchor="middle" x="187.4997" y="-226.4409" font-family="Times,serif" font-size="14.00" fill="#000000"> &#160;&#45; &#160;</text>
<text text-anchor="middle" x="187.8282" y="-190.6643" font-family="Times,serif" font-size="14.00" fill="#000000"> &#160;&#45; &#160;</text>
</g>
<!-- 16 -->
<g id="node17" class="node">
<title>16</title>
<ellipse fill="none" stroke="#000000" cx="181" cy="-33.9411" rx="44.5955" ry="33.8824"/>
<text text-anchor="start" x="170.5" y="-38.9411" font-family="Times,serif" font-size="20.00" fill="#000000">25</text>
<text text-anchor="start" x="157.5" y="-26.9411" font-family="Times,serif" font-size="10.00" fill="#000000">L: 13.26Kb</text>
<text text-anchor="start" x="158.5" y="-16.9411" font-family="Times,serif" font-size="10.00" fill="#000000">C: 894.538</text>
</g>
<!-- 10&#45;&gt;16 -->
<g id="edge23" class="edge">
<title>10&#45;&gt;16</title>
<path fill="none" stroke="#000000" d="M165.098,-126.7061C158.5508,-119.0929 152.502,-110.2726 149,-100.8823 145.3503,-91.0957 147.223,-80.7929 151.4859,-71.2827"/>
<polygon fill="none" stroke="#000000" points="151.4921,-71.271 154.5794,-72.9199 156.2033,-62.4502 151.4921,-71.271"/>
<text text-anchor="middle" x="170.5" y="-89.6823" font-family="Times,serif" font-size="14.00" fill="#000000"> &#160;1007 &#160;</text>
<text text-anchor="middle" x="146.7033" y="-66.2502" font-family="Times,serif" font-size="14.00" fill="#000000"> &#160;&#45; &#160;</text>
<text text-anchor="middle" x="155.598" y="-115.5061" font-family="Times,serif" font-size="14.00" fill="#000000"> &#160;&#45; &#160;</text>
</g>
<!-- 11&#45;&gt;2 -->
<g id="edge24" class="edge">
<title>11&#45;&gt;2</title>
<path fill="none" stroke="#000000" d="M97.4149,-595.237C93.1325,-581.8398 88.1355,-566.2067 83.5893,-551.9841"/>
<polygon fill="none" stroke="#000000" points="83.5731,-551.9331 86.9069,-550.8674 80.5284,-542.4079 83.5731,-551.9331"/>
<text text-anchor="middle" x="110" y="-565.2113" font-family="Times,serif" font-size="14.00" fill="#000000"> &#160;129 &#160;</text>
<text text-anchor="middle" x="71.0284" y="-546.2079" font-family="Times,serif" font-size="14.00" fill="#000000"> &#160;&#45; &#160;</text>
<text text-anchor="middle" x="86.4149" y="-584.037" font-family="Times,serif" font-size="14.00" fill="#000000"> &#160;+ &#160;</text>
</g>
<!-- 14 -->
<g id="node15" class="node">
<title>14</title>
<ellipse fill="none" stroke="#000000" cx="174" cy="-509.4701" rx="44.5955" ry="33.8824"/>
<text text-anchor="start" x="163.5" y="-514.4701" font-family="Times,serif" font-size="20.00" fill="#000000">23</text>
<text text-anchor="start" x="150.5" y="-502.4701" font-family="Times,serif" font-size="10.00" fill="#000000">L: 13.28Kb</text>
<text text-anchor="start" x="151.5" y="-492.4701" font-family="Times,serif" font-size="10.00" fill="#000000">C: 8.92308</text>
</g>
<!-- 11&#45;&gt;14 -->
<g id="edge25" class="edge">
<title>11&#45;&gt;14</title>
<path fill="none" stroke="#000000" d="M146.418,-610.6073C159.8876,-602.2725 173.5135,-590.9263 181,-576.4113 184.77,-569.1019 185.9379,-560.7518 185.6495,-552.4857"/>
<polygon fill="none" stroke="#000000" points="185.6481,-552.4704 189.1307,-552.122 184.6525,-542.5201 185.6481,-552.4704"/>
<text text-anchor="middle" x="200.5" y="-565.2113" font-family="Times,serif" font-size="14.00" fill="#000000"> &#160;10 &#160;</text>
<text text-anchor="middle" x="175.1525" y="-546.3201" font-family="Times,serif" font-size="14.00" fill="#000000"> &#160;&#45; &#160;</text>
<text text-anchor="middle" x="155.918" y="-614.4073" font-family="Times,serif" font-size="14.00" fill="#000000"> &#160;&#45; &#160;</text>
</g>
<!-- 17 -->
<g id="node18" class="node">
<title>17</title>
<ellipse fill="none" stroke="#000000" cx="158" cy="-747.2346" rx="44.5955" ry="33.8824"/>
<text text-anchor="start" x="147.5" y="-752.2346" font-family="Times,serif" font-size="20.00" fill="#000000">26</text>
<text text-anchor="start" x="134.5" y="-740.2346" font-family="Times,serif" font-size="10.00" fill="#000000">L: 13.28Kb</text>
<text text-anchor="start" x="135.5" y="-730.2346" font-family="Times,serif" font-size="10.00" fill="#000000">C: 958.308</text>
</g>
<!-- 11&#45;&gt;17 -->
<g id="edge26" class="edge">
<title>11&#45;&gt;17</title>
<path fill="none" stroke="#000000" d="M95.8742,-661.0643C93.565,-672.3044 93.1649,-684.7127 98,-695.2935 102.0371,-704.128 108.401,-712.0359 115.5041,-718.8574"/>
<polygon fill="none" stroke="#000000" points="115.9177,-719.2212 113.6062,-721.8493 123.4265,-725.8256 115.9177,-719.2212"/>
<text text-anchor="middle" x="119.5" y="-684.0935" font-family="Times,serif" font-size="14.00" fill="#000000"> &#160;1050 &#160;</text>
<text text-anchor="middle" x="113.9265" y="-714.6256" font-family="Times,serif" font-size="14.00" fill="#000000"> &#160;&#45; &#160;</text>
<text text-anchor="middle" x="86.3742" y="-664.8643" font-family="Times,serif" font-size="14.00" fill="#000000"> &#160;&#45; &#160;</text>
</g>
<!-- 12&#45;&gt;5 -->
<g id="edge27" class="edge">
<title>12&#45;&gt;5</title>
<path fill="none" stroke="#000000" d="M252.7166,-400.7308C275.9723,-408.4215 303.323,-421.3881 320,-442.529 338.8251,-466.393 334,-479.0748 334,-509.4701 334,-866.1169 334,-866.1169 334,-866.1169 334,-900.6753 309.8483,-931.9923 287.1426,-953.7982"/>
<polygon fill="none" stroke="#000000" points="286.8835,-954.0373 284.5097,-951.4653 279.5349,-960.8195 286.8835,-954.0373"/>
<text text-anchor="middle" x="348.5" y="-684.0935" font-family="Times,serif" font-size="14.00" fill="#000000"> &#160;84 &#160;</text>
<text text-anchor="middle" x="289.0349" y="-949.6195" font-family="Times,serif" font-size="14.00" fill="#000000"> &#160;&#45; &#160;</text>
<text text-anchor="middle" x="263.7166" y="-404.5308" font-family="Times,serif" font-size="14.00" fill="#000000"> &#160;+ &#160;</text>
</g>
<!-- 12&#45;&gt;13 -->
<g id="edge28" class="edge">
<title>12&#45;&gt;13</title>
<path fill="none" stroke="#000000" d="M182.9944,-363.2802C177.2767,-355.8657 172.0516,-347.4378 169,-338.6468 165.9228,-329.7819 166.8466,-320.3114 169.6758,-311.3672"/>
<polygon fill="none" stroke="#000000" points="173.3943,-301.9219 166.4743,-309.9447 169.731,-311.2268 173.3943,-301.9219"/>
<text text-anchor="middle" x="183.5" y="-327.4468" font-family="Times,serif" font-size="14.00" fill="#000000"> &#160;11 &#160;</text>
<text text-anchor="middle" x="162.3943" y="-305.7219" font-family="Times,serif" font-size="14.00" fill="#000000"> &#160;+ &#160;</text>
<text text-anchor="middle" x="173.4944" y="-352.0802" font-family="Times,serif" font-size="14.00" fill="#000000"> &#160;&#45; &#160;</text>
</g>
<!-- 12&#45;&gt;14 -->
<g id="edge29" class="edge">
<title>12&#45;&gt;14</title>
<path fill="none" stroke="#000000" d="M181.5023,-417.072C175.1887,-424.6217 169.3765,-433.3194 166,-442.529 163.2805,-449.9467 162.5513,-458.1066 162.9519,-466.1017"/>
<polygon fill="none" stroke="#000000" points="163.9987,-476.0724 166.4353,-465.7616 162.9544,-466.1271 163.9987,-476.0724"/>
<text text-anchor="middle" x="177" y="-446.329" font-family="Times,serif" font-size="14.00" fill="#000000"> &#160;8 &#160;</text>
<text text-anchor="middle" x="152.9987" y="-464.8724" font-family="Times,serif" font-size="14.00" fill="#000000"> &#160;+ &#160;</text>
<text text-anchor="middle" x="172.0023" y="-420.872" font-family="Times,serif" font-size="14.00" fill="#000000"> &#160;&#45; &#160;</text>
</g>
<!-- 13&#45;&gt;10 -->
<g id="edge30" class="edge">
<title>13&#45;&gt;10</title>
<path fill="none" stroke="#000000" d="M173.6405,-241.2116C170.0729,-234.4195 166.8989,-227.0608 165,-219.7645 162.5614,-210.3945 164.1652,-200.6514 167.6145,-191.5935"/>
<polygon fill="none" stroke="#000000" points="171.7851,-182.4466 164.4518,-190.0933 167.6364,-191.5454 171.7851,-182.4466"/>
<text text-anchor="middle" x="179.5" y="-208.5645" font-family="Times,serif" font-size="14.00" fill="#000000"> &#160;19 &#160;</text>
<text text-anchor="middle" x="160.7851" y="-186.2466" font-family="Times,serif" font-size="14.00" fill="#000000"> &#160;+ &#160;</text>
<text text-anchor="middle" x="162.6405" y="-230.0116" font-family="Times,serif" font-size="14.00" fill="#000000"> &#160;+ &#160;</text>
</g>
<!-- 13&#45;&gt;12 -->
<g id="edge31" class="edge">
<title>13&#45;&gt;12</title>
<path fill="none" stroke="#000000" d="M198.5856,-305.7775C200.2929,-318.4627 202.2555,-333.0454 204.0665,-346.5011"/>
<polygon fill="none" stroke="#000000" points="205.415,-356.521 207.5498,-346.1435 204.0811,-346.6104 205.415,-356.521"/>
<text text-anchor="middle" x="217.5" y="-327.4468" font-family="Times,serif" font-size="14.00" fill="#000000"> &#160;11 &#160;</text>
<text text-anchor="middle" x="194.415" y="-345.321" font-family="Times,serif" font-size="14.00" fill="#000000"> &#160;+ &#160;</text>
<text text-anchor="middle" x="189.0856" y="-309.5775" font-family="Times,serif" font-size="14.00" fill="#000000"> &#160;&#45; &#160;</text>
</g>
<!-- 14&#45;&gt;11 -->
<g id="edge32" class="edge">
<title>14&#45;&gt;11</title>
<path fill="none" stroke="#000000" d="M156.6337,-540.7512C148.6084,-555.2067 138.9788,-572.5519 130.4135,-587.9802"/>
<polygon fill="none" stroke="#000000" points="125.5135,-596.8062 133.4275,-589.7621 130.3674,-588.0632 125.5135,-596.8062"/>
<text text-anchor="middle" x="159.5" y="-565.2113" font-family="Times,serif" font-size="14.00" fill="#000000"> &#160;10 &#160;</text>
<text text-anchor="middle" x="114.5135" y="-585.6062" font-family="Times,serif" font-size="14.00" fill="#000000"> &#160;+ &#160;</text>
<text text-anchor="middle" x="145.6337" y="-544.5512" font-family="Times,serif" font-size="14.00" fill="#000000"> &#160;+ &#160;</text>
</g>
<!-- 14&#45;&gt;12 -->
<g id="edge33" class="edge">
<title>14&#45;&gt;12</title>
<path fill="none" stroke="#000000" d="M184.028,-476.3548C188.0125,-463.197 192.65,-447.8824 196.8946,-433.8656"/>
<polygon fill="none" stroke="#000000" points="199.9009,-423.9379 193.6528,-432.4943 197.0026,-433.5087 199.9009,-423.9379"/>
<text text-anchor="middle" x="206" y="-446.329" font-family="Times,serif" font-size="14.00" fill="#000000"> &#160;8 &#160;</text>
<text text-anchor="middle" x="188.9009" y="-427.7379" font-family="Times,serif" font-size="14.00" fill="#000000"> &#160;+ &#160;</text>
<text text-anchor="middle" x="174.528" y="-465.1548" font-family="Times,serif" font-size="14.00" fill="#000000"> &#160;&#45; &#160;</text>
</g>
<!-- 15&#45;&gt;5 -->
<g id="edge34" class="edge">
<title>15&#45;&gt;5</title>
<path fill="none" stroke="#000000" d="M163.6423,-897.2718C171.2197,-908.9643 180.4392,-922.072 190,-933.058 196.0605,-940.0218 203.0154,-946.9669 209.9561,-953.4074"/>
<polygon fill="none" stroke="#000000" points="210.0224,-953.4674 207.6746,-956.0632 217.4389,-960.1752 210.0224,-953.4674"/>
<text text-anchor="middle" x="211.5" y="-921.858" font-family="Times,serif" font-size="14.00" fill="#000000"> &#160;3816 &#160;</text>
<text text-anchor="middle" x="207.9389" y="-963.9752" font-family="Times,serif" font-size="14.00" fill="#000000"> &#160;&#45; &#160;</text>
<text text-anchor="middle" x="152.6423" y="-901.0718" font-family="Times,serif" font-size="14.00" fill="#000000"> &#160;+ &#160;</text>
</g>
<!-- 15&#45;&gt;16 -->
<g id="edge35" class="edge">
<title>15&#45;&gt;16</title>
<path fill="none" stroke="#000000" d="M103.8367,-852.4046C60.9683,-835.2165 0,-801.2724 0,-747.2346 0,-747.2346 0,-747.2346 0,-152.8234 0,-91.0632 74.5322,-59.6128 127.9418,-45.0042"/>
<polygon fill="none" stroke="#000000" points="137.646,-42.4689 127.086,-41.6103 127.9707,-44.9967 137.646,-42.4689"/>
<text text-anchor="middle" x="18" y="-446.329" font-family="Times,serif" font-size="14.00" fill="#000000"> &#160;797 &#160;</text>
<text text-anchor="middle" x="126.646" y="-46.2689" font-family="Times,serif" font-size="14.00" fill="#000000"> &#160;+ &#160;</text>
<text text-anchor="middle" x="94.3367" y="-856.2046" font-family="Times,serif" font-size="14.00" fill="#000000"> &#160;&#45; &#160;</text>
</g>
<!-- 15&#45;&gt;17 -->
<g id="edge36" class="edge">
<title>15&#45;&gt;17</title>
<path fill="none" stroke="#000000" d="M148.7253,-832.05C150.1124,-819.3653 151.707,-804.7827 153.1784,-791.3267"/>
<polygon fill="none" stroke="#000000" points="154.2742,-781.3065 149.7078,-790.8667 153.1871,-791.2472 154.2742,-781.3065"/>
<text text-anchor="middle" x="171" y="-802.9758" font-family="Times,serif" font-size="14.00" fill="#000000"> &#160;879 &#160;</text>
<text text-anchor="middle" x="143.2742" y="-785.1065" font-family="Times,serif" font-size="14.00" fill="#000000"> &#160;+ &#160;</text>
<text text-anchor="middle" x="139.2253" y="-820.85" font-family="Times,serif" font-size="14.00" fill="#000000"> &#160;&#45; &#160;</text>
</g>
<!-- 16&#45;&gt;10 -->
<g id="edge37" class="edge">
<title>16&#45;&gt;10</title>
<path fill="none" stroke="#000000" d="M189.042,-67.6026C190.227,-73.6569 191.287,-79.9334 192,-85.8823 192.8751,-93.184 193.4399,-100.964 193.7943,-108.5402"/>
<polygon fill="none" stroke="#000000" points="194.1564,-118.681 197.2972,-108.5624 193.7994,-108.6874 194.1564,-118.681"/>
<text text-anchor="middle" x="215.5" y="-89.6823" font-family="Times,serif" font-size="14.00" fill="#000000"> &#160;1007 &#160;</text>
<text text-anchor="middle" x="183.1564" y="-107.481" font-family="Times,serif" font-size="14.00" fill="#000000"> &#160;+ &#160;</text>
<text text-anchor="middle" x="178.042" y="-71.4026" font-family="Times,serif" font-size="14.00" fill="#000000"> &#160;+ &#160;</text>
</g>
<!-- 16&#45;&gt;15 -->
<g id="edge38" class="edge">
<title>16&#45;&gt;15</title>
<path fill="none" stroke="#000000" d="M216.1026,-55.1701C245.6076,-75.9814 283,-110.6712 283,-152.8234 283,-390.5879 283,-390.5879 283,-390.5879 283,-526.0389 319.2751,-566.6087 277,-695.2935 258.8608,-750.5089 214.2639,-801.5102 181.9175,-833.1433"/>
<polygon fill="none" stroke="#000000" points="174.3942,-840.37 184.0306,-835.9667 181.606,-833.4425 174.3942,-840.37"/>
<text text-anchor="middle" x="304" y="-446.329" font-family="Times,serif" font-size="14.00" fill="#000000"> &#160;797 &#160;</text>
<text text-anchor="middle" x="185.3942" y="-829.17" font-family="Times,serif" font-size="14.00" fill="#000000"> &#160;+ &#160;</text>
<text text-anchor="middle" x="225.6026" y="-58.9701" font-family="Times,serif" font-size="14.00" fill="#000000"> &#160;&#45; &#160;</text>
</g>
<!-- 17&#45;&gt;11 -->
<g id="edge39" class="edge">
<title>17&#45;&gt;11</title>
<path fill="none" stroke="#000000" d="M151.6405,-713.5175C149.0174,-702.6675 145.5129,-690.7525 141,-680.2935 139.09,-675.867 136.8281,-671.3871 134.3976,-667.0103"/>
<polygon fill="none" stroke="#000000" points="129.2306,-658.221 131.2812,-668.6155 134.2985,-666.8417 129.2306,-658.221"/>
<text text-anchor="middle" x="168.5" y="-684.0935" font-family="Times,serif" font-size="14.00" fill="#000000"> &#160;1050 &#160;</text>
<text text-anchor="middle" x="118.2306" y="-662.021" font-family="Times,serif" font-size="14.00" fill="#000000"> &#160;+ &#160;</text>
<text text-anchor="middle" x="140.6405" y="-702.3175" font-family="Times,serif" font-size="14.00" fill="#000000"> &#160;+ &#160;</text>
</g>
<!-- 17&#45;&gt;15 -->
<g id="edge40" class="edge">
<title>17&#45;&gt;15</title>
<path fill="none" stroke="#000000" d="M128.3231,-772.6177C121.298,-780.3522 114.7601,-789.4163 111,-799.1758 107.0892,-809.3264 109.3413,-819.9728 114.1538,-829.7131"/>
<polygon fill="none" stroke="#000000" points="119.1899,-838.3632 117.1832,-827.9601 114.1584,-829.7212 119.1899,-838.3632"/>
<text text-anchor="middle" x="129" y="-802.9758" font-family="Times,serif" font-size="14.00" fill="#000000"> &#160;879 &#160;</text>
<text text-anchor="middle" x="108.1899" y="-827.1632" font-family="Times,serif" font-size="14.00" fill="#000000"> &#160;+ &#160;</text>
<text text-anchor="middle" x="118.8231" y="-776.4177" font-family="Times,serif" font-size="14.00" fill="#000000"> &#160;&#45; &#160;</text>
</g>
</g>
</svg>
