<?xml version="1.0" encoding="UTF-8" standalone="no"?>
<!DOCTYPE svg PUBLIC "-//W3C//DTD SVG 1.1//EN"
 "http://www.w3.org/Graphics/SVG/1.1/DTD/svg11.dtd">
<!-- Generated by graphviz version 2.40.1 (20161225.0304)
 -->
<!-- Title: GFA Pages: 1 -->
<svg width="412pt" height="551pt"
 viewBox="0.00 0.00 411.87 551.41" xmlns="http://www.w3.org/2000/svg" xmlns:xlink="http://www.w3.org/1999/xlink">
<g id="graph0" class="graph" transform="scale(1 1) rotate(0) translate(4 547.4113)">
<title>GFA</title>
<polygon fill="#ffffff" stroke="transparent" points="-4,4 -4,-547.4113 407.8694,-547.4113 407.8694,4 -4,4"/>
<!-- 0 -->
<g id="node1" class="node">
<title>0</title>
<ellipse fill="none" stroke="#000000" cx="75.8694" cy="-509.4701" rx="48.1667" ry="33.8824"/>
<text text-anchor="start" x="70.3694" y="-514.4701" font-family="Times,serif" font-size="20.00" fill="#000000">4</text>
<text text-anchor="start" x="49.8694" y="-502.4701" font-family="Times,serif" font-size="10.00" fill="#000000">L: 122.93Kb</text>
<text text-anchor="start" x="55.8694" y="-492.4701" font-family="Times,serif" font-size="10.00" fill="#000000">C: 419.22</text>
</g>
<!-- 2 -->
<g id="node3" class="node">
<title>2</title>
<ellipse fill="none" stroke="#000000" cx="172.8694" cy="-390.5879" rx="41.0244" ry="33.8824"/>
<text text-anchor="start" x="167.3694" y="-395.5879" font-family="Times,serif" font-size="20.00" fill="#000000">6</text>
<text text-anchor="start" x="151.8694" y="-383.5879" font-family="Times,serif" font-size="10.00" fill="#000000">L: 4.19Kb</text>
<text text-anchor="start" x="155.3694" y="-373.5879" font-family="Times,serif" font-size="10.00" fill="#000000">C: 767.6</text>
</g>
<!-- 0&#45;&gt;2 -->
<g id="edge2" class="edge">
<title>0&#45;&gt;2</title>
<path fill="none" stroke="#000000" d="M90.2703,-476.9689C96.1249,-465.5038 103.495,-452.897 111.8694,-442.529 118.3588,-434.4947 126.2153,-426.7516 134.1,-419.8065"/>
<polygon fill="none" stroke="#000000" points="141.9445,-413.1462 132.0562,-416.9504 134.3215,-419.6184 141.9445,-413.1462"/>
<text text-anchor="middle" x="129.8694" y="-446.329" font-family="Times,serif" font-size="14.00" fill="#000000"> &#160;338 &#160;</text>
<text text-anchor="middle" x="130.9445" y="-416.9462" font-family="Times,serif" font-size="14.00" fill="#000000"> &#160;+ &#160;</text>
<text text-anchor="middle" x="80.7703" y="-465.7689" font-family="Times,serif" font-size="14.00" fill="#000000"> &#160;&#45; &#160;</text>
</g>
<!-- 3 -->
<g id="node4" class="node">
<title>3</title>
<ellipse fill="none" stroke="#000000" cx="151.8694" cy="-152.8234" rx="43.2674" ry="33.8824"/>
<text text-anchor="start" x="146.3694" y="-157.8234" font-family="Times,serif" font-size="20.00" fill="#000000">7</text>
<text text-anchor="start" x="130.8694" y="-145.8234" font-family="Times,serif" font-size="10.00" fill="#000000">L: 6.59Kb</text>
<text text-anchor="start" x="129.3694" y="-135.8234" font-family="Times,serif" font-size="10.00" fill="#000000">C: 798.625</text>
</g>
<!-- 0&#45;&gt;3 -->
<g id="edge1" class="edge">
<title>0&#45;&gt;3</title>
<path fill="none" stroke="#000000" d="M52.4537,-479.6877C27.0863,-443.8925 -8.4776,-381.4126 1.8694,-323.6468 11.8028,-268.19 8.0962,-246.5653 45.8694,-204.7645 60.8062,-188.235 82.1721,-176.3776 101.8132,-168.2049"/>
<polygon fill="none" stroke="#000000" points="111.2809,-164.4846 100.6936,-164.8844 101.9737,-168.1419 111.2809,-164.4846"/>
<text text-anchor="middle" x="19.8694" y="-327.4468" font-family="Times,serif" font-size="14.00" fill="#000000"> &#160;379 &#160;</text>
<text text-anchor="middle" x="100.2809" y="-168.2846" font-family="Times,serif" font-size="14.00" fill="#000000"> &#160;+ &#160;</text>
<text text-anchor="middle" x="41.4537" y="-468.4877" font-family="Times,serif" font-size="14.00" fill="#000000"> &#160;+ &#160;</text>
</g>
<!-- 1 -->
<g id="node2" class="node">
<title>1</title>
<ellipse fill="none" stroke="#000000" cx="122.8694" cy="-33.9411" rx="44.5955" ry="33.8824"/>
<text text-anchor="start" x="117.3694" y="-38.9411" font-family="Times,serif" font-size="20.00" fill="#000000">5</text>
<text text-anchor="start" x="99.3694" y="-26.9411" font-family="Times,serif" font-size="10.00" fill="#000000">L: 63.01Kb</text>
<text text-anchor="start" x="100.3694" y="-16.9411" font-family="Times,serif" font-size="10.00" fill="#000000">C: 355.096</text>
</g>
<!-- 1&#45;&gt;2 -->
<g id="edge4" class="edge">
<title>1&#45;&gt;2</title>
<path fill="none" stroke="#000000" d="M165.1177,-45.3927C217.9265,-59.8029 301.7178,-83.0264 303.8694,-85.8823 321.3189,-109.0434 256.1793,-315.3811 238.8694,-338.6468 231.9356,-347.9662 222.926,-356.5154 213.8038,-363.8711"/>
<polygon fill="none" stroke="#000000" points="205.8078,-370.0174 215.8693,-366.698 213.7362,-363.923 205.8078,-370.0174"/>
<text text-anchor="middle" x="303.8694" y="-208.5645" font-family="Times,serif" font-size="14.00" fill="#000000"> &#160;374 &#160;</text>
<text text-anchor="middle" x="216.8078" y="-358.8174" font-family="Times,serif" font-size="14.00" fill="#000000"> &#160;+ &#160;</text>
<text text-anchor="middle" x="174.6177" y="-49.1927" font-family="Times,serif" font-size="14.00" fill="#000000"> &#160;&#45; &#160;</text>
</g>
<!-- 1&#45;&gt;3 -->
<g id="edge3" class="edge">
<title>1&#45;&gt;3</title>
<path fill="none" stroke="#000000" d="M99.2143,-63.0003C92.4998,-74.7849 88.3406,-88.5093 93.8694,-100.8823 97.7571,-109.5827 103.9023,-117.4303 110.7667,-124.2349"/>
<polygon fill="none" stroke="#000000" points="118.4248,-131.2004 113.3821,-121.8825 111.027,-124.4717 118.4248,-131.2004"/>
<text text-anchor="middle" x="111.8694" y="-89.6823" font-family="Times,serif" font-size="14.00" fill="#000000"> &#160;380 &#160;</text>
<text text-anchor="middle" x="107.4248" y="-120.0004" font-family="Times,serif" font-size="14.00" fill="#000000"> &#160;+ &#160;</text>
<text text-anchor="middle" x="88.2143" y="-66.8003" font-family="Times,serif" font-size="14.00" fill="#000000"> &#160;+ &#160;</text>
</g>
<!-- 2&#45;&gt;0 -->
<g id="edge8" class="edge">
<title>2&#45;&gt;0</title>
<path fill="none" stroke="#000000" d="M164.715,-423.8775C160.8539,-435.2932 155.3933,-447.6653 147.8694,-457.529 140.784,-466.8178 131.5824,-475.1596 122.139,-482.3007"/>
<polygon fill="none" stroke="#000000" points="113.8251,-488.2608 123.9917,-485.279 121.9525,-482.4344 113.8251,-488.2608"/>
<text text-anchor="middle" x="175.8694" y="-446.329" font-family="Times,serif" font-size="14.00" fill="#000000"> &#160;338 &#160;</text>
<text text-anchor="middle" x="124.8251" y="-477.0608" font-family="Times,serif" font-size="14.00" fill="#000000"> &#160;+ &#160;</text>
<text text-anchor="middle" x="155.215" y="-427.6775" font-family="Times,serif" font-size="14.00" fill="#000000"> &#160;&#45; &#160;</text>
</g>
<!-- 2&#45;&gt;1 -->
<g id="edge7" class="edge">
<title>2&#45;&gt;1</title>
<path fill="none" stroke="#000000" d="M158.2471,-358.7994C143.1999,-324.9683 120.017,-269.5604 105.8694,-219.7645 101.7954,-205.4249 102.2347,-201.4828 99.8694,-186.7645 93.7543,-148.712 90.5425,-139.3301 87.8694,-100.8823 87.407,-94.2316 85.9217,-92.2581 87.8694,-85.8823 89.36,-81.0027 91.48,-76.1669 93.9486,-71.5228"/>
<polygon fill="none" stroke="#000000" points="99.0517,-62.867 90.9579,-69.7038 93.973,-71.4814 99.0517,-62.867"/>
<text text-anchor="middle" x="123.8694" y="-208.5645" font-family="Times,serif" font-size="14.00" fill="#000000"> &#160;374 &#160;</text>
<text text-anchor="middle" x="110.0517" y="-66.667" font-family="Times,serif" font-size="14.00" fill="#000000"> &#160;+ &#160;</text>
<text text-anchor="middle" x="148.7471" y="-347.5994" font-family="Times,serif" font-size="14.00" fill="#000000"> &#160;&#45; &#160;</text>
</g>
<!-- 4 -->
<g id="node5" class="node">
<title>4</title>
<ellipse fill="none" stroke="#000000" cx="307.8694" cy="-33.9411" rx="48.1667" ry="33.8824"/>
<text text-anchor="start" x="302.3694" y="-38.9411" font-family="Times,serif" font-size="20.00" fill="#000000">8</text>
<text text-anchor="start" x="281.8694" y="-26.9411" font-family="Times,serif" font-size="10.00" fill="#000000">L: 115.53Kb</text>
<text text-anchor="start" x="285.3694" y="-16.9411" font-family="Times,serif" font-size="10.00" fill="#000000">C: 419.862</text>
</g>
<!-- 2&#45;&gt;4 -->
<g id="edge5" class="edge">
<title>2&#45;&gt;4</title>
<path fill="none" stroke="#000000" d="M208.1935,-372.7046C223.8371,-363.7673 241.8317,-352.006 255.8694,-338.6468 299.9629,-296.6843 309.3225,-278.8701 323.8694,-219.7645 335.6113,-172.056 327.8131,-115.6211 319.5131,-77.5647"/>
<polygon fill="none" stroke="#000000" points="319.4044,-77.089 322.8163,-76.3085 317.1746,-67.3407 319.4044,-77.089"/>
<text text-anchor="middle" x="343.8694" y="-208.5645" font-family="Times,serif" font-size="14.00" fill="#000000"> &#160;347 &#160;</text>
<text text-anchor="middle" x="307.6746" y="-71.1407" font-family="Times,serif" font-size="14.00" fill="#000000"> &#160;&#45; &#160;</text>
<text text-anchor="middle" x="219.1935" y="-376.5046" font-family="Times,serif" font-size="14.00" fill="#000000"> &#160;+ &#160;</text>
</g>
<!-- 5 -->
<g id="node6" class="node">
<title>5</title>
<ellipse fill="none" stroke="#000000" cx="197.8694" cy="-271.7056" rx="44.5955" ry="33.8824"/>
<text text-anchor="start" x="192.3694" y="-276.7056" font-family="Times,serif" font-size="20.00" fill="#000000">9</text>
<text text-anchor="start" x="174.3694" y="-264.7056" font-family="Times,serif" font-size="10.00" fill="#000000">L: 56.98Kb</text>
<text text-anchor="start" x="175.3694" y="-254.7056" font-family="Times,serif" font-size="10.00" fill="#000000">C: 395.217</text>
</g>
<!-- 2&#45;&gt;5 -->
<g id="edge6" class="edge">
<title>2&#45;&gt;5</title>
<path fill="none" stroke="#000000" d="M160.0082,-358.1685C157.3265,-347.0697 156.266,-334.675 159.8694,-323.6468 161.5828,-318.4028 164.0489,-313.2495 166.9135,-308.347"/>
<polygon fill="none" stroke="#000000" points="166.9927,-308.2245 169.9316,-310.1253 172.4238,-299.8278 166.9927,-308.2245"/>
<text text-anchor="middle" x="177.8694" y="-327.4468" font-family="Times,serif" font-size="14.00" fill="#000000"> &#160;399 &#160;</text>
<text text-anchor="middle" x="162.9238" y="-303.6278" font-family="Times,serif" font-size="14.00" fill="#000000"> &#160;&#45; &#160;</text>
<text text-anchor="middle" x="171.0082" y="-346.9685" font-family="Times,serif" font-size="14.00" fill="#000000"> &#160;+ &#160;</text>
</g>
<!-- 3&#45;&gt;0 -->
<g id="edge12" class="edge">
<title>3&#45;&gt;0</title>
<path fill="none" stroke="#000000" d="M120.3619,-176.4932C111.9407,-184.4986 103.8144,-194.1345 98.8694,-204.7645 59.1029,-290.2488 63.4649,-403.892 69.8509,-465.3998"/>
<polygon fill="none" stroke="#000000" points="69.8725,-465.5963 66.3937,-465.9809 70.9714,-475.5357 69.8725,-465.5963"/>
<text text-anchor="middle" x="86.8694" y="-327.4468" font-family="Times,serif" font-size="14.00" fill="#000000"> &#160;379 &#160;</text>
<text text-anchor="middle" x="61.4714" y="-464.3357" font-family="Times,serif" font-size="14.00" fill="#000000"> &#160;&#45; &#160;</text>
<text text-anchor="middle" x="129.8619" y="-180.2932" font-family="Times,serif" font-size="14.00" fill="#000000"> &#160;&#45; &#160;</text>
</g>
<!-- 3&#45;&gt;1 -->
<g id="edge11" class="edge">
<title>3&#45;&gt;1</title>
<path fill="none" stroke="#000000" d="M143.7141,-119.3917C140.5326,-106.3496 136.8435,-91.2265 133.4611,-77.3605"/>
<polygon fill="none" stroke="#000000" points="133.4339,-77.2489 136.8342,-76.4194 131.0639,-67.5338 133.4339,-77.2489"/>
<text text-anchor="middle" x="157.8694" y="-89.6823" font-family="Times,serif" font-size="14.00" fill="#000000"> &#160;380 &#160;</text>
<text text-anchor="middle" x="140.5639" y="-71.3338" font-family="Times,serif" font-size="14.00" fill="#000000"> &#160;&#45; &#160;</text>
<text text-anchor="middle" x="134.2141" y="-108.1917" font-family="Times,serif" font-size="14.00" fill="#000000"> &#160;&#45; &#160;</text>
</g>
<!-- 3&#45;&gt;4 -->
<g id="edge10" class="edge">
<title>3&#45;&gt;4</title>
<path fill="none" stroke="#000000" d="M174.1584,-123.7217C184.7113,-111.1288 198.0242,-96.8059 211.8694,-85.8823 225.7979,-74.8929 242.3788,-64.9944 257.8089,-56.8587"/>
<polygon fill="none" stroke="#000000" points="266.7323,-52.2773 256.2377,-53.7311 257.8363,-56.8447 266.7323,-52.2773"/>
<text text-anchor="middle" x="229.8694" y="-89.6823" font-family="Times,serif" font-size="14.00" fill="#000000"> &#160;349 &#160;</text>
<text text-anchor="middle" x="255.7323" y="-56.0773" font-family="Times,serif" font-size="14.00" fill="#000000"> &#160;+ &#160;</text>
<text text-anchor="middle" x="185.1584" y="-112.5217" font-family="Times,serif" font-size="14.00" fill="#000000"> &#160;+ &#160;</text>
</g>
<!-- 3&#45;&gt;5 -->
<g id="edge9" class="edge">
<title>3&#45;&gt;5</title>
<path fill="none" stroke="#000000" d="M175.8639,-181.3123C180.9012,-188.5696 185.6552,-196.63 188.8694,-204.7645 191.6859,-211.8925 193.6509,-219.7442 195.0156,-227.4855"/>
<polygon fill="none" stroke="#000000" points="196.4849,-237.5284 198.5003,-227.127 195.0372,-227.6337 196.4849,-237.5284"/>
<text text-anchor="middle" x="211.8694" y="-208.5645" font-family="Times,serif" font-size="14.00" fill="#000000"> &#160;397 &#160;</text>
<text text-anchor="middle" x="185.4849" y="-226.3284" font-family="Times,serif" font-size="14.00" fill="#000000"> &#160;+ &#160;</text>
<text text-anchor="middle" x="186.8639" y="-185.1123" font-family="Times,serif" font-size="14.00" fill="#000000"> &#160;+ &#160;</text>
</g>
<!-- 4&#45;&gt;2 -->
<g id="edge13" class="edge">
<title>4&#45;&gt;2</title>
<path fill="none" stroke="#000000" d="M328.4853,-64.6103C350.5441,-101.2582 380.5107,-164.5579 365.8694,-219.7645 348.9498,-283.5616 332.2045,-302.6693 276.8694,-338.6468 258.6312,-350.5047 237.3139,-361.5854 218.7437,-370.4411"/>
<polygon fill="none" stroke="#000000" points="218.6485,-370.4858 217.1623,-367.317 209.5948,-374.7321 218.6485,-370.4858"/>
<text text-anchor="middle" x="385.8694" y="-208.5645" font-family="Times,serif" font-size="14.00" fill="#000000"> &#160;347 &#160;</text>
<text text-anchor="middle" x="200.0948" y="-378.5321" font-family="Times,serif" font-size="14.00" fill="#000000"> &#160;&#45; &#160;</text>
<text text-anchor="middle" x="339.4853" y="-68.4103" font-family="Times,serif" font-size="14.00" fill="#000000"> &#160;+ &#160;</text>
</g>
<!-- 4&#45;&gt;3 -->
<g id="edge14" class="edge">
<title>4&#45;&gt;3</title>
<path fill="none" stroke="#000000" d="M284.7341,-64.0494C274.3202,-76.3938 261.3471,-90.2486 247.8694,-100.8823 233.0703,-112.5584 215.277,-123.0032 199.0511,-131.4105"/>
<polygon fill="none" stroke="#000000" points="198.6422,-131.6166 197.0663,-128.4914 189.7131,-136.119 198.6422,-131.6166"/>
<text text-anchor="middle" x="281.8694" y="-89.6823" font-family="Times,serif" font-size="14.00" fill="#000000"> &#160;349 &#160;</text>
<text text-anchor="middle" x="199.2131" y="-139.919" font-family="Times,serif" font-size="14.00" fill="#000000"> &#160;&#45; &#160;</text>
<text text-anchor="middle" x="275.2341" y="-67.8494" font-family="Times,serif" font-size="14.00" fill="#000000"> &#160;&#45; &#160;</text>
</g>
<!-- 5&#45;&gt;2 -->
<g id="edge15" class="edge">
<title>5&#45;&gt;2</title>
<path fill="none" stroke="#000000" d="M199.3826,-305.7378C199.1835,-316.3847 198.2646,-328.1023 195.8694,-338.6468 195.0454,-342.2742 193.9649,-345.9603 192.7214,-349.609"/>
<polygon fill="none" stroke="#000000" points="192.6623,-349.765 189.3901,-348.5229 189.1133,-359.1141 192.6623,-349.765"/>
<text text-anchor="middle" x="216.8694" y="-327.4468" font-family="Times,serif" font-size="14.00" fill="#000000"> &#160;399 &#160;</text>
<text text-anchor="middle" x="193.8633" y="-347.9141" font-family="Times,serif" font-size="14.00" fill="#000000"> &#160;&#45; &#160;</text>
<text text-anchor="middle" x="188.3826" y="-309.5378" font-family="Times,serif" font-size="14.00" fill="#000000"> &#160;+ &#160;</text>
</g>
<!-- 5&#45;&gt;3 -->
<g id="edge16" class="edge">
<title>5&#45;&gt;3</title>
<path fill="none" stroke="#000000" d="M167.2064,-246.7886C159.7858,-238.9974 152.8512,-229.7879 148.8694,-219.7645 146.0025,-212.5478 144.8347,-204.5434 144.6747,-196.6527"/>
<polygon fill="none" stroke="#000000" points="144.6818,-196.4163 148.1802,-196.523 144.9868,-186.4209 144.6818,-196.4163"/>
<text text-anchor="middle" x="166.8694" y="-208.5645" font-family="Times,serif" font-size="14.00" fill="#000000"> &#160;397 &#160;</text>
<text text-anchor="middle" x="154.4868" y="-190.2209" font-family="Times,serif" font-size="14.00" fill="#000000"> &#160;&#45; &#160;</text>
<text text-anchor="middle" x="157.7064" y="-235.5886" font-family="Times,serif" font-size="14.00" fill="#000000"> &#160;&#45; &#160;</text>
</g>
</g>
</svg>
